<?xml version="1.0" encoding="UTF-8" standalone="no"?>
<!-- Created with Inkscape (http://www.inkscape.org/) -->

<svg
   width="210mm"
   height="297mm"
   viewBox="0 0 210 297"
   version="1.1"
   id="svg1"
   xml:space="preserve"
   inkscape:version="1.4.2 (f4327f4, 2025-05-13)"
   sodipodi:docname="logo.svg"
   xmlns:inkscape="http://www.inkscape.org/namespaces/inkscape"
   xmlns:sodipodi="http://sodipodi.sourceforge.net/DTD/sodipodi-0.dtd"
   xmlns="http://www.w3.org/2000/svg"
   xmlns:svg="http://www.w3.org/2000/svg"><sodipodi:namedview
     id="namedview1"
     pagecolor="#ffffff"
     bordercolor="#000000"
     borderopacity="0.25"
     inkscape:showpageshadow="2"
     inkscape:pageopacity="0.0"
     inkscape:pagecheckerboard="0"
     inkscape:deskcolor="#d1d1d1"
     inkscape:document-units="mm"
     inkscape:zoom="0.37193112"
     inkscape:cx="92.759112"
     inkscape:cy="364.31477"
     inkscape:window-width="1920"
     inkscape:window-height="1094"
     inkscape:window-x="2869"
     inkscape:window-y="-11"
     inkscape:window-maximized="1"
     inkscape:current-layer="layer1"
     showgrid="false" /><defs
     id="defs1" /><g
     inkscape:label="Layer 1"
     inkscape:groupmode="layer"
     id="layer1"><path
       class="st0"
       d="M 189,0 H 21 C 9.45,0 0,9.45 0,21 v 105 c 0,11.55 9.45,21 21,21 h 168 c 11.55,0 21,-9.45 21,-21.21 V 21 C 210,9.45 200.55,0 189,0 Z"
       id="path1"
       style="stroke-width:2.1" /><path
       class="st1"
       d="m 194.67,125.79 c 0.21,3.15 -2.31,5.88 -5.67,6.09 H 21 c -3.15,0 -5.67,-2.73 -5.67,-5.88 V 21 c -0.21,-3.15 2.31,-5.88 5.46,-6.09 H 189 c 3.15,0 5.67,2.73 5.67,5.88 z"
       id="path2"
       style="stroke-width:2.1" /><path
       class="st0"
       d="m 64.26657,121.73572 h -35.28 V 62.30987 h 35.28 c 24.99,0 38.64,9.601557 38.64,29.453424 0,17.127096 -9.45,29.842676 -38.64,29.972426 z m 15.33,-28.804668 c 0,-11.937071 -2.1,-21.279126 -22.89,-21.279126 h -4.62 v 40.482234 h 8.19 c 12.18,0 19.32,-6.09828 19.32,-19.203108 z"
       id="path3"
       style="stroke-width:1.65069"
       sodipodi:nodetypes="cccsscssccss" /><path
       d="m 133.35657,90.595537 c -9.87,-1.81651 -16.59,-7.395794 -16.8,-13.883332 0,-1.297508 0.42,-14.532085 27.51,-14.532085 h 40.11 v 59.42585 h -34.02 c -9.03,0 -37.17,0 -37.17,-16.73785 0,-4.02227 2.94,-11.937068 20.37,-14.272583 z m 27.93,-19.073362 h -7.35 c -10.29,0 -14.49,2.205762 -14.49,7.136292 0,3.892523 4.62,7.136292 12.6,7.136292 h 9.03 V 71.522175 Z m -9.45,40.611985 h 9.45 V 96.823575 h -10.08 c -11.97,0 -14.91,4.281775 -14.91,7.655305 0,7.65528 11.76,7.65528 15.54,7.65528 z"
       style="display:inline;fill:#f01414;stroke-width:1.65069"
       id="path1-5" /><g
       id="g7"
       inkscape:label="Guidelines"><path
         style="font-variation-settings:normal;opacity:1;fill:none;fill-opacity:1;stroke:#000000;stroke-width:0.001;stroke-linecap:butt;stroke-linejoin:round;stroke-miterlimit:4;stroke-dasharray:none;stroke-dashoffset:0;stroke-opacity:0.960784;stop-color:#000000;stop-opacity:1"
         d="M -5.5576347,25.402751 H 243.60224"
         id="path4" /><path
         style="font-variation-settings:normal;opacity:1;fill:none;fill-opacity:1;stroke:#000000;stroke-width:0.001;stroke-linecap:butt;stroke-linejoin:round;stroke-miterlimit:4;stroke-dasharray:none;stroke-dashoffset:0;stroke-opacity:0.960784;stop-color:#000000;stop-opacity:1"
         d="M -5.5576347,121.62216 H 243.60224"
         id="path5" /><path
         style="font-variation-settings:normal;opacity:1;fill:none;fill-opacity:1;stroke:#000000;stroke-width:0.001;stroke-linecap:butt;stroke-linejoin:round;stroke-miterlimit:4;stroke-dasharray:none;stroke-dashoffset:0;stroke-opacity:0.960784;stop-color:#000000;stop-opacity:1"
         d="M 184.17657,-2.9577773 V 246.2021"
         id="path6" /><path
         style="font-variation-settings:normal;opacity:1;fill:none;fill-opacity:1;stroke:#000000;stroke-width:0.001;stroke-linecap:butt;stroke-linejoin:round;stroke-miterlimit:4;stroke-dasharray:none;stroke-dashoffset:0;stroke-opacity:0.960784;stop-color:#000000;stop-opacity:1"
         d="M 28.986812,-2.9577773 V 246.2021"
         id="path7" /></g><text
       xml:space="preserve"
       style="font-weight:bold;font-size:38.1112px;line-height:1;font-family:'TeX Gyre Heros';-inkscape-font-specification:'TeX Gyre Heros Bold';text-align:center;text-decoration-color:#000000;text-anchor:middle;fill:#f01414;stroke-width:3.32404;stroke-linejoin:round;stroke-opacity:0.960784;-inkscape-stroke:none;stop-color:#000000;fill-opacity:1"
       x="106.79134"
       y="53.643593"
       id="text1"><tspan
         sodipodi:role="line"
         id="tspan1"
         style="font-style:normal;font-variant:normal;font-weight:bold;font-stretch:normal;font-family:'TeX Gyre Heros';-inkscape-font-specification:'TeX Gyre Heros Bold';stroke-width:3.32404;fill:#f01414;fill-opacity:1"
         x="106.79134"
         y="53.643593">SAMPLE</tspan></text></g><style
     id="style1">.st0{fill:#f01414}.st1{fill:#fff}</style></svg>
